<svg xmlns="http://www.w3.org/2000/svg" width="300.531" height="285.346" viewBox="0 0 300.531 285.346"><defs><style>.a{fill:#e9323e;}.b{fill:#23a7a3;}.c{fill:#fc9d2c;}</style></defs><g transform="translate(-28.21 -29.561)"><circle class="a" cx="102.589" cy="102.589" r="102.589" transform="translate(89.996 109.728)"/><path class="b" d="M62.541,156.091c-1.185,1.141-2.476,2.545-3.82,4.08-4.689,5.653-9.8,11.751-19.971,7.7-9.049-3.6-12.146-11.742-8.4-21.146,1.557-3.907,6.354-12.893,11.616-10.8a4.725,4.725,0,0,1,2.572,6.4,11.168,11.168,0,0,1-2.064,2.937,13.509,13.509,0,0,0-3.058,4.614c-1.292,3.246-1.313,6.767,2.826,8.412a5.009,5.009,0,0,0,5.807-.907,26.28,26.28,0,0,0,3.794-4.013c4.759-5.626,9.968-11.76,19.928-7.795,9.749,3.884,12.565,13.137,8.793,22.608-1.952,4.9-7.469,13.446-12.379,11.49a4.844,4.844,0,0,1-2.679-6.13,10.27,10.27,0,0,1,2.161-2.977,19.722,19.722,0,0,0,4.015-6c1.819-4.57.569-7.755-3.29-9.291C65.236,154.019,63.578,155.123,62.541,156.091Z"/><path class="b" d="M69.666,180.541a4.574,4.574,0,0,1-1.7-.328,5.419,5.419,0,0,1-2.861-2.781,5.176,5.176,0,0,1-.144-4.109,10.662,10.662,0,0,1,2.276-3.158l.274-.312a18.088,18.088,0,0,0,3.626-5.5c1.676-4.212.68-7.082-2.962-8.532-2.773-1.1-4.2-.267-5.234.7-1.049,1.01-2.287,2.331-3.783,4.04-4.691,5.658-10.023,12.081-20.625,7.858-4.576-1.821-7.8-4.839-9.327-8.728-1.51-3.846-1.3-8.4.6-13.177a31.424,31.424,0,0,1,4.512-7.806c2.629-3.171,5.349-4.319,7.864-3.317a5.3,5.3,0,0,1,2.907,2.755,5.563,5.563,0,0,1-.008,4.4,8.734,8.734,0,0,1-1.662,2.5c-.162.191-.327.385-.493.589a13.009,13.009,0,0,0-2.968,4.463,7.555,7.555,0,0,0-.6,4.456,4.621,4.621,0,0,0,3.1,3.2,4.455,4.455,0,0,0,5.2-.8,26.069,26.069,0,0,0,3.722-3.936c4.808-5.685,10.247-12.1,20.6-7.979,9.661,3.849,13.24,13.022,9.12,23.367a30.782,30.782,0,0,1-5.187,8.489C73.76,179.3,71.631,180.54,69.666,180.541ZM65.794,154.13a7.631,7.631,0,0,1,2.814.6c4.24,1.688,5.524,5.257,3.617,10.049a19.329,19.329,0,0,1-3.836,5.844l-.283.322a9.77,9.77,0,0,0-2.057,2.809,4.019,4.019,0,0,0,.12,3.188,4.245,4.245,0,0,0,2.231,2.182c2.417.968,4.945-1.114,6.648-3.02a29.984,29.984,0,0,0,4.973-8.144c3.858-9.685.535-18.262-8.466-21.847-9.583-3.814-14.508,2-19.266,7.628a26.879,26.879,0,0,1-3.862,4.081,5.613,5.613,0,0,1-6.4,1,5.721,5.721,0,0,1-3.8-4.014,8.67,8.67,0,0,1,.65-5.155,14.083,14.083,0,0,1,3.174-4.8c.145-.181.316-.382.484-.578a7.734,7.734,0,0,0,1.464-2.176,4.412,4.412,0,0,0,.026-3.491,4.124,4.124,0,0,0-2.271-2.145c-2.031-.809-4.224.194-6.532,2.977a30.16,30.16,0,0,0-4.325,7.493c-1.79,4.493-2,8.753-.6,12.317,1.406,3.58,4.405,6.37,8.671,8.069,9.819,3.909,14.64-1.906,19.305-7.53,1.551-1.771,2.776-3.079,3.865-4.128l.006-.006A5.159,5.159,0,0,1,65.794,154.13Z"/><path class="b" d="M91.87,139a5.352,5.352,0,0,1-.346,5.882,4.9,4.9,0,0,1-7.005.781,6.658,6.658,0,0,1-1.127-1.237L59.67,106.017c-1.641-2.615-2.385-5.117-.171-7.726s4.753-2.324,7.7-1.13l41.729,17.224a6.493,6.493,0,0,1,1.4.913,4.812,4.812,0,0,1,.356,7.041,5.488,5.488,0,0,1-5.841,1.4L97.419,120.7l-9.836,11.573ZM77.01,111.49a49.789,49.789,0,0,1-6.467-3.813,49.955,49.955,0,0,1,4.805,5.77l7.387,11.239L89.2,117.08Z"/><path class="b" d="M87.558,147.391a5.244,5.244,0,0,1-3.418-1.28,7.175,7.175,0,0,1-1.259-1.4L59.173,106.324c-1.435-2.288-2.749-5.313-.119-8.411,2.607-3.07,5.692-2.375,8.364-1.294l41.732,17.226a7.109,7.109,0,0,1,1.561,1.01,5.259,5.259,0,0,1,1.912,3.8,5.932,5.932,0,0,1-1.491,4.063,6.032,6.032,0,0,1-6.5,1.559L97.591,121.4l-9.283,10.922,4.06,6.376a5.692,5.692,0,0,1-4.126,8.649A5.258,5.258,0,0,1,87.558,147.391ZM63.537,96.867a4.516,4.516,0,0,0-3.593,1.8c-1.713,2.018-1.649,4.056.222,7.036L83.89,144.122a6.193,6.193,0,0,0,1.008,1.1,4.036,4.036,0,0,0,3.193.965,4.521,4.521,0,0,0,3.284-6.873l-4.517-7.092L97.248,120l7.818,3.2a4.944,4.944,0,0,0,5.175-1.232,4.771,4.771,0,0,0,1.214-3.257,4.051,4.051,0,0,0-1.5-2.961,6.156,6.156,0,0,0-1.22-.808L66.976,97.7A9.413,9.413,0,0,0,63.537,96.867Zm19.137,28.791-7.815-11.891a50,50,0,0,0-4.745-5.694l-3.245-3.52,4,2.637a49.971,49.971,0,0,0,6.382,3.766l.006,0,12.892,5.91Zm-8.882-15.219a29.252,29.252,0,0,1,2.044,2.687l6.959,10.587,5.46-6.423-11.486-5.267A29.462,29.462,0,0,1,73.792,110.439Z"/><path class="b" d="M141.865,95.26a5.357,5.357,0,0,0-7.379-1.662l-12.7,7.758L101.468,68.094a5.576,5.576,0,0,0-9.513,5.812l22.865,37.436a5.665,5.665,0,0,0,3.678,2.6,6.064,6.064,0,0,0,1.28.138,5.975,5.975,0,0,0,3.124-.883l17.151-10.477A5.37,5.37,0,0,0,141.865,95.26Z"/><path class="b" d="M203.824,47.352,196.3,46.6a4.853,4.853,0,0,1-4.489-5.229,5.294,5.294,0,0,1,5.446-4.312l24.964,2.5a5.065,5.065,0,0,1,4.554,5.311,5.013,5.013,0,0,1-5.509,4.23l-7.517-.755L209.82,87.633a5.015,5.015,0,0,1-5.447,4.31,4.96,4.96,0,0,1-4.483-5.3Z"/><path class="b" d="M204.863,92.551a5.281,5.281,0,0,1-.546-.027,5.59,5.59,0,0,1-3.769-2.005,5.385,5.385,0,0,1-1.239-3.939l3.876-38.705-6.938-.695a5.64,5.64,0,0,1-3.794-1.968,5.215,5.215,0,0,1-1.218-3.9,5.87,5.87,0,0,1,6.086-4.835l24.963,2.5a5.681,5.681,0,0,1,5.079,5.95,5.577,5.577,0,0,1-6.149,4.753l-6.937-.695L210.4,87.691A5.569,5.569,0,0,1,204.863,92.551Zm-8.03-54.93a4.429,4.429,0,0,0-2.871,1.144,4.361,4.361,0,0,0-1.565,2.664,4.049,4.049,0,0,0,.952,3.031,4.478,4.478,0,0,0,3.014,1.558l8.1.812-.057.58L200.471,86.7a4.211,4.211,0,0,0,.977,3.076,4.421,4.421,0,0,0,7.791-2.2l3.992-39.87,8.1.814a4.437,4.437,0,0,0,4.869-3.707,4.492,4.492,0,0,0-4.031-4.672l-24.964-2.5C197.081,37.628,196.958,37.621,196.833,37.621Z"/><path class="b" d="M250.742,104.969l-17.375-7.4c-3.213-1.369-5.594-3.778-4-7.529L246.03,50.93a5.567,5.567,0,0,1,7.151-2.779l17.767,7.572a5.024,5.024,0,0,1,2.666,6.47,4.784,4.784,0,0,1-6.423,2.351l-13.639-5.81-4.764,11.178L261.18,75.2a4.923,4.923,0,0,1,2.66,6.3,4.8,4.8,0,0,1-6.417,2.517l-12.394-5.282-4.823,11.321L254.5,96.15a4.8,4.8,0,1,1-3.757,8.819Z"/><path class="b" d="M252.7,105.956a5.588,5.588,0,0,1-2.192-.45l-17.374-7.4c-4.28-1.822-5.809-4.768-4.307-8.295L245.49,50.7a6.173,6.173,0,0,1,7.919-3.087l17.766,7.571a5.559,5.559,0,0,1,2.97,3.037,5.4,5.4,0,0,1,0,4.2,5.069,5.069,0,0,1-3.017,2.834,5.769,5.769,0,0,1-4.171-.175l-13.1-5.581-4.308,10.1,11.857,5.054a5.5,5.5,0,0,1,2.965,7.072,5.354,5.354,0,0,1-2.933,2.9,5.526,5.526,0,0,1-4.246-.079L245.337,79.5l-4.364,10.246,13.753,5.864a5.776,5.776,0,0,1,2.972,2.93,5.078,5.078,0,0,1,.1,4.1,5.391,5.391,0,0,1-3.05,2.932A5.635,5.635,0,0,1,252.7,105.956Zm-1.735-1.525a4.419,4.419,0,0,0,3.353.05,4.232,4.232,0,0,0,2.4-2.3,3.916,3.916,0,0,0-.087-3.163,4.6,4.6,0,0,0-2.361-2.333l-14.83-6.323,5.282-12.4,12.931,5.511a4.36,4.36,0,0,0,3.354.071,4.193,4.193,0,0,0,2.294-2.278,4.318,4.318,0,0,0-2.349-5.539L248.019,70.22l5.226-12.253,14.173,6.04a4.62,4.62,0,0,0,3.326.147,3.912,3.912,0,0,0,2.33-2.189,4.292,4.292,0,0,0-.011-3.3,4.4,4.4,0,0,0-2.344-2.4l-17.767-7.572a4.968,4.968,0,0,0-6.387,2.471l-16.657,39.1c-1.547,3.63,1.151,5.68,3.687,6.761Z"/><path class="b" d="M295.624,137.366a4.93,4.93,0,0,1-6.841.007,5.014,5.014,0,0,1-.338-6.936l18.037-18.691-17.592,6.528a5.23,5.23,0,0,1-6.716-6.481l5.9-17.813-18.036,18.691a5.029,5.029,0,0,1-6.994-.14,4.822,4.822,0,0,1-.185-6.787L294,73.466a4.932,4.932,0,0,1,7.152-.022,5.148,5.148,0,0,1,1.545,5.584l-9.38,27.99L321,96.591a4.96,4.96,0,0,1,5.53,1.348,5.027,5.027,0,0,1,.232,7.151Z"/><path class="b" d="M292.247,139.333a5.591,5.591,0,0,1-3.869-1.54,5.828,5.828,0,0,1-1.747-3.872,5.218,5.218,0,0,1,1.395-3.89l16.253-16.844-15.187,5.634a5.814,5.814,0,0,1-7.474-7.215l5.093-15.373-16.253,16.843a5.612,5.612,0,0,1-7.82-.125,5.393,5.393,0,0,1-.2-7.612L293.582,73.06a5.494,5.494,0,0,1,3.865-1.723,5.575,5.575,0,0,1,4.111,1.687,5.742,5.742,0,0,1,1.7,6.191l-8.992,26.822L320.8,96.045a5.519,5.519,0,0,1,6.14,1.473,5.588,5.588,0,0,1,.247,7.978l-31.143,32.276h0a5.209,5.209,0,0,1-3.7,1.562Zm16.437-29.027-19.818,20.537a4,4,0,0,0-1.066,3.02,4.639,4.639,0,0,0,1.39,3.089,4.439,4.439,0,0,0,3.134,1.212,4.066,4.066,0,0,0,2.879-1.2h0l31.143-32.277a4.431,4.431,0,0,0-.217-6.324c-1.568-1.507-3.171-1.912-4.91-1.224L292.372,108l9.773-29.156a4.57,4.57,0,0,0-1.4-4.977,4.741,4.741,0,0,0-3.278-1.361,4.337,4.337,0,0,0-3.045,1.368L263.277,106.15a4.223,4.223,0,0,0,.173,5.961,4.433,4.433,0,0,0,6.168.153l19.814-20.537-6.7,20.25a4.646,4.646,0,0,0,5.953,5.75Z"/><path class="c" d="M232.554,181.25a13.251,13.251,0,0,0-9.805-3.754,13.589,13.589,0,0,0-9.9,3.754A13.118,13.118,0,0,0,209,191.08V236.9a16.05,16.05,0,0,1-4.651,11.662,15.464,15.464,0,0,1-11.524,4.761,16.265,16.265,0,0,1-16.379-16.464V191.327a15.272,15.272,0,0,0-.967-5.553,12.612,12.612,0,0,0-8.6-7.7,29.806,29.806,0,0,0-.078-6.03,36.722,36.722,0,0,0,8.36,3.887c17.574,5.39,31.646-7.3,36.631-14.764a3.88,3.88,0,0,0-1.4-5.559,60.514,60.514,0,0,0-10.626-4.472c-18.387-5.646-31.221,2.216-37.152,8.939a31.718,31.718,0,0,0-10.921-10.836,3.853,3.853,0,0,0-3.749,6.733,24.5,24.5,0,0,1,9.9,11.575,21.406,21.406,0,0,1,1.428,8.861l-.005.082c-.023.457-.1.939-.141,1.4a12.334,12.334,0,0,0-6.246,3.431,13.713,13.713,0,0,0-3.738,9.949v45.473l.01-.01v.041q0,18.676,12.539,31.259t31.138,12.585q18.4,0,30.934-12.662t12.539-31.1V191.075A13.3,13.3,0,0,0,232.554,181.25Zm-63.4-16.81c3.956-4.022,13.18-10.6,28.37-5.934a47.184,47.184,0,0,1,4.974,1.843c-4.383,4.616-13.44,11.773-25.087,8.2A30.952,30.952,0,0,1,169.153,164.44Z"/><path class="c" d="M305.051,145.137c-3.1.892-5.445,5.446-3.769,8.2a5.783,5.783,0,0,0,8.406,1.2,6.069,6.069,0,0,0,.063-8.6c-1.187-1.117-4.169-1.39-5.484-.426"/><path class="c" d="M304.663,143.728c-3.421,1.178-6.1,5.1-5.26,8.786.872,3.815,5.412,5.542,8.9,4.44,3.811-1.2,5.468-5.557,4.255-9.2a6.257,6.257,0,0,0-9.03-3.5,1.462,1.462,0,0,0,1.475,2.523c4.657-2.821,7.359,6.271,2.086,7.485-1.872.431-4.466-.413-4.87-2.524a5.092,5.092,0,0,1,3.218-5.192c1.768-.608,1.008-3.431-.776-2.817Z"/><path class="b" d="M312.282,165.2c-2.535-.4-4.687,2.882-3.488,5.151s4.827,2.54,6.531.62a4.877,4.877,0,0,0-.829-6.811c-1.364-1.042-4.792.051-5.883,3.742"/><path class="b" d="M312.282,163.734c-3.842-.374-6.609,4.411-4.587,7.623,1.9,3.02,6.706,3.077,8.882.372,2.11-2.622,1.455-7.9-2.015-9.173-3.39-1.24-6.414,2.057-7.357,4.953-.584,1.792,2.236,2.56,2.817.776.389-1.193,1.739-3.4,3.356-3.04,1.494.336,1.784,2.986,1.262,4.128a2.737,2.737,0,0,1-4.145.8c-1.473-1.311.054-3.689,1.787-3.52,1.87.182,1.858-2.741,0-2.922Z"/><path class="a" d="M316.207,182.478c4.043,1.52-.324,6.748-2.91,4.541s1.025-6.309,3.612-4.1"/><path class="a" d="M315.818,183.886c1.33.553-.126,2.4-1.2,2.205-1.714-.318-.081-3.181,1.255-2.141,1.466,1.142,3.549-.912,2.066-2.066a4.2,4.2,0,0,0-6.316,1.052,3.942,3.942,0,0,0,1.833,5.843,4.539,4.539,0,0,0,5.267-2.239c1.336-2.306.166-4.516-2.131-5.471a1.471,1.471,0,0,0-1.8,1.02,1.5,1.5,0,0,0,1.02,1.8Z"/><path class="c" d="M178.529,71.969,171.341,42.01a5.945,5.945,0,0,0-7.209-4.3,5.694,5.694,0,0,0-3.605,2.685,5.951,5.951,0,0,0-.661,4.366l7.188,29.959c.726,3.028,1.065,8.317-4.825,9.731a6.4,6.4,0,0,1-5.679-.938,9.7,9.7,0,0,1-3.1-5.524l-7.188-29.96a5.749,5.749,0,0,0-.743-1.7l-.048-.082a5.9,5.9,0,0,0-.426-.569,5.389,5.389,0,0,0-.433-.485c-.057-.055-.118-.1-.178-.157a5.483,5.483,0,0,0-.456-.4c-.08-.058-.171-.082-.253-.134-.037-.024-.067-.055-.1-.079a5.874,5.874,0,0,0-.671-.33c-.074-.03-.142-.08-.217-.107a5.937,5.937,0,0,0-1.327-.373,13.8,13.8,0,0,0-.518-2.473,14.567,14.567,0,0,0,3.658.992c7.458.9,12.009-5.582,13.373-9.137a1.749,1.749,0,0,0-.044-1.345,1.642,1.642,0,0,0-.973-.89,23.948,23.948,0,0,0-4.612-1.064c-7.8-.948-12.264,3.391-14.066,6.71a13.311,13.311,0,0,0-5.26-3.739,1.516,1.516,0,0,0-1.963,1.037,1.721,1.721,0,0,0,1.024,2.1,10.1,10.1,0,0,1,6.23,7.786l.005.035c.018.127.027.259.038.39a5.725,5.725,0,0,0-3.442,6.757l7.188,29.96c1.323,5.514,4.092,9.841,8.009,12.514a16.831,16.831,0,0,0,9.642,2.882,22.289,22.289,0,0,0,5.185-.639C175.789,92.865,181.277,83.413,178.529,71.969ZM152,32.984a18.629,18.629,0,0,1,2.151.394c-1.36,2.3-4.377,6.055-9.326,5.455a12.228,12.228,0,0,1-3.646-1.1C142.417,35.72,145.546,32.2,152,32.984Z"/></g></svg>